<?xml version="1.0" encoding="UTF-8"?>
<svg width="1030px" height="461px" viewBox="0 0 1030 461" version="1.1" xmlns="http://www.w3.org/2000/svg" xmlns:xlink="http://www.w3.org/1999/xlink">
    <!-- Generator: Sketch 40.3 (33839) - http://www.bohemiancoding.com/sketch -->
    <title>Artboard</title>
    <desc>Created with Sketch.</desc>
    <defs></defs>
    <g id="Page-1-Copy" stroke="none" stroke-width="1" fill="none" fill-rule="evenodd">
        <g id="Artboard" fill="#000000">
            <text id="Froyg" font-family="HelveticaNeue, Helvetica Neue" font-size="275" font-weight="normal">
                <tspan x="334" y="262">Froyg</tspan>
            </text>
            <text id="HTTP-Gateway-for-AWS" font-family="HelveticaNeue, Helvetica Neue" font-size="55" font-weight="normal">
                <tspan x="350" y="395">HTTP Gateway for AWS S3</tspan>
            </text>
            <g id="noun_63273" transform="translate(16.000000, 50.000000)">
                <path d="M62.9568175,36.8903677 C58.9557893,43.6926686 54.9547612,50.4949695 51.3538358,57.6974058 C47.7529105,64.4997067 44.5520879,71.702143 41.3512654,78.9045793 C41.7513682,78.9045793 42.1514711,79.3047146 42.5515739,79.3047146 C44.5520879,76.1036319 46.552602,72.9025491 48.5531161,69.7014663 C62.1566118,49.2945635 77.7606216,30.4882021 98.1658652,16.0833296 C108.968641,8.48075795 120.571623,2.87886307 133.374913,0.87818633 C153.380054,-2.32289646 170.184372,3.27899842 184.988176,16.8836003 C204.993317,35.2898263 216.196196,58.4976765 222.997944,84.5064742 C229.399589,109.314866 231,134.123257 229.799692,159.73192 C226.598869,216.951275 207.794037,268.96887 172.184886,314.184164 C160.982007,328.188901 148.178717,340.993233 132.574707,349.79621 C103.767305,366.20176 74.1596963,363.800947 48.5531161,341.793503 C26.1473584,322.587007 11.3435543,298.17875 4.54180639,269.369005 C2.1411895,258.965486 1.74108668,247.761696 0.94088105,236.958042 C-1.05963303,210.148974 0.140675419,183.740041 5.34201202,157.331108 C13.3440683,117.317573 27.7477697,79.70485 52.5541443,46.8937514 C55.354864,42.8923979 58.9557893,39.2911798 62.1566118,35.6899617 C62.1566118,36.4902323 62.5567146,36.8903677 62.9568175,36.8903677 L62.9568175,36.8903677 Z M178.986634,176.93774 C178.586531,176.93774 178.186428,176.537604 178.186428,176.537604 C178.186428,175.737334 178.586531,174.937063 178.586531,174.136792 C184.187971,149.328401 186.98869,124.119874 186.188485,98.9113467 C185.788382,85.7068802 183.387765,72.5024137 178.186428,60.0982179 C173.385195,49.2945635 166.183344,40.4915858 154.980465,35.6899617 C138.976352,28.8876607 123.772445,31.6886082 109.768847,40.8917212 C93.7647343,51.2952402 82.1617526,66.1002481 71.7590794,82.1056621 C60.1560978,100.511888 51.7539386,120.11852 44.1519851,140.525423 C32.1489007,172.536251 24.1468444,205.347349 25.7472556,240.159125 C26.9475641,263.76711 32.5490035,286.17469 44.5520879,306.981728 C61.3564062,336.591744 90.5639117,345.394721 116.970698,336.991879 C117.770903,336.591744 118.971212,336.191608 119.771417,335.791473 C118.571109,334.991202 117.770903,334.991202 116.570595,334.991202 C93.3646314,332.990526 75.3600047,322.987142 62.1566118,303.38051 C52.9542471,289.375773 48.5531161,273.770494 46.1524992,257.364945 C46.1524992,256.964809 46.1524992,256.564674 46.552602,255.364268 C49.3533217,261.366298 51.7539386,267.368328 54.9547612,272.570088 C62.1566118,286.17469 70.558771,298.578886 83.3620611,307.381863 C94.1648371,314.984435 105.767819,318.185518 118.571109,312.983758 C123.772445,310.983081 128.573679,308.182134 132.97481,304.580916 C152.579848,288.975637 166.183344,268.568734 177.786326,246.961426 C184.988176,233.756959 189.78941,219.752222 193.790438,205.347349 C202.992803,174.136792 206.593728,142.125964 201.792494,109.715001 C200.592186,101.712294 198.991775,94.1097225 197.391363,86.1070156 L196.191055,86.1070156 C196.991261,118.117843 194.190541,148.52813 178.986634,176.93774 L178.986634,176.93774 Z" id="Shape"></path>
            </g>
        </g>
    </g>
</svg>